P2
22 25
255
 77  74  81  78  85  93 129 129 115 127 195 145 123 169 147  89  82 104 135 109  76 109
 71  74  77 105 107 112 132 169 122 151 204 114  95  97 117 101  65  76 105 133 114  88
114  94 106  90 109 122 165 164 178 187 197 151  88 134 122 130 107 121  93 107 128 127
158 104  82  82  85  92 144 155 154 180 157 183  87 182 145  96 108  80  65  84 127 126
124  78  78  72  72  87  80  69  74  93  99 157 116 160 139  61  85 118 141 115 124 127
 86  74  76  72  71  64 100 121 139 170 132 142 154 182 160  90  77  94 142 145 118 124
 75  83  74  69  81 103 137 170 158 116  91  90  71 123 173  94  66  72  69 110 120 123
 77  92  72 106 138 140 104  84  78  66  68  71  69  96 161 103  71  90  76  81 125 121
103  95  77 134  92  97 100  82  78  83  77  70  67  96 185 126  61  71  69  95 127 121
122  80  82 105 112  66  66  87 106  96  76  68  74  84 180 130  75  83  95 110 126 119
131 105  92 113 140 100  64  79  87  86  88  77  65 103 189 122  70 116 103 122 123 119
138 138 128 106 127 158 128  90  69  71  85 105  81  93 191 115  68  95 114 119 121 120
124 142 140 137 115 115 168 205 169 104  71  92  82  91 185 101  59  93 119 117 116 119
131 140 140 138 140 131 117 132 146 166 148 115  68 106 192  99  83 109 123 118 116 118
138 137 137 140 138 135 136 129 123 119 138 140  72 108 178  87 101 123 122 120 118 119
136 132 136 135 134 135 134 134 128 133 126 123  90 105 177  84 101 123 121 120 119 118
138 134 136 135 136 135 136 133 131 132 134 113  87  86 163  99 116 121 119 121 120 121
137 134 133 133 135 137 137 134 137 136 138 114  77 103 147  81 122 121 119 120 121 122
139 133 132 132 129 137 132 132 134 131 135 108  73  97 122  89 126 122 119 118 119 121
137 137 134 135 133 133 134 133 132 126 129 103  75  79 111  95 127 121 120 118 119 119
126 140 135 134 134 136 134 131 133 127 131  99  65  78  89 101 126 120 120 117 116 117
112 143 135 134 133 130 132 129 119 127 133  99  70  95  74 113 123 119 120 118 116 115
100 139 136 136 133 131 132 120  95 127 132  95  72 113  90 128 120 122  97 104 118 114
109 133 135 137 134 128 127 127 123 128 126  86  66  73 108 131 122 119 101 111 119 117
123 123 135 136 134 130 127 129 129 130 126  81  63  73 124 124 122 122 119 117 118 116
