P3
22 25
255
 74  77  82  71  74  79  78  81  86  75  78  83  82  86  90  89  94  98 123 130 133 124 130 134 111 115 121 122 128 133 189 196 199 141 146 149 118 124 128 162 170 173 141 148 152  85  89  95  79  82  84 141  94  95 205 116 115 162  95  98  96  70  72 156  96  97
 68  71  76  72  74  80  74  77  81 102 106 110 102 108 112 108 113 117 125 133 136 161 171 173 117 123 128 144 152 157 197 206 209 110 115 119  91  96 100  93  98 103 113 118 125  97 101 106  62  65  70  76  76  79 139  96  99 205 114 111 173  98 100 120  79  82
108 115 118  90  95  99  99 107 110  83  91  94 105 109 114 119 122 127 158 166 169 156 166 167 170 180 181 180 188 191 190 198 201 145 153 155  85  89  93 129 135 138 117 123 127 126 131 136 103 108 111 115 122 126  88  94  98 150  95  94 205 108 105 200 108 107
151 159 162 100 105 109  79  82  87  79  82  87  82  85  90  89  92  97 138 145 148 149 156 160 149 155 159 175 181 185 150 159 162 176 184 188  85  87  92 177 183 185 139 146 149  93  96 101 104 109 113  79  80  85  62  65  72 102  79  82 199 108 106 198 107 106
118 125 128  75  78  83  75  79  82  69  73  76  69  73  77  84  88  91  76  81  85  65  69  74  72  74  79  90  93  97  95 100 105 151 158 164 109 117 122 154 161 164 137 139 144  61  60  66  83  85  90 114 118 124 133 143 149 125 112 116 192 106 104 199 108 105
 80  87  90  71  74  79  73  77  80  69  73  76  68  72  75  61  65  69  96 101 105 117 122 126 134 140 143 166 171 175 125 133 137 135 143 149 148 155 161 176 183 189 156 160 167  88  90  95  77  77  82  91  94 101 135 143 149 144 145 147 179 101 100 199 104 101
 72  75  80  80  83  87  70  75  78  65  70  73  77  82  86  96 104 107 130 138 141 163 171 174 151 159 162 110 117 120  87  92  96  86  91  95  67  72  76 117 124 131 166 174 183  91  94 100  66  66  71  68  72  77  66  69  74 111 109 114 179 104 102 200 103 101
 74  77  83  90  92  97  68  73  76 101 107 110 131 139 142 136 141 145 100 105 109  80  85  89  77  78  83  66  66  71  67  68  73  70  71  76  68  69  74  93  96 102 153 163 167  99 104 108  68  71  76  84  92  94  69  77  81  93  77  81 194 106 105 196 101  99
111 101 104  88  97 100  74  77  82 128 135 139  89  93  97  95  97 102  99 100 106  79  82  87  75  78  84  77  84  89  74  78  82  70  70  73  67  67  71  93  96 100 177 187 188 122 127 131  61  61  66  70  71  76  65  69  75 129  86  88 204 107 105 196 101  99
164 110 114  76  81  87  78  83  90 100 106 109 107 113 116  66  66  72  65  66  71  80  88  93  94 108 116  83  99 103  73  77  80  67  68  72  74  74  78  81  84  88 172 182 185 127 131 135  74  75  80  80  83  88  95  94 100 167  95  95 203 106 102 193  99  97
188 115 116 139  95  98 106  88  91 106 115 119 131 142 144  94 101 104  61  64  69  73  80  85  81  88  94  82  87  92  85  89  93  74  78  82  64  65  69 101 103 110 182 190 196 118 123 127  70  70  76 109 117 121 137  93  95 199 101  99 197 103 100 194  99  97
200 122 120 199 122 120 188 112 111 132  99 103 126 127 131 151 159 164 121 129 132  89  90  94  67  69  73  69  71  75  83  85  90 101 106 110  77  82  85  90  93  98 184 193 198 111 115 120  65  68  73 109  91  95 184  95  96 195  99  97 195 101  99 195 100  98
159 115 116 207 124 125 205 122 121 206 118 116 159 103 104 130 111 116 170 167 171 197 207 207 162 171 174 101 104 108  69  71  76  88  93  96  80  82  86  88  91  95 178 187 192 100 101 107  55  60  64 133  82  84 197  98  95 191  97  95 191  96  94 194  99  97
183 117 120 204 123 126 202 124 122 202 121 118 206 123 119 194 114 112 163 105 105 152 127 129 156 143 146 162 167 170 140 150 154 110 116 119  68  68  73 103 106 110 184 194 199  96  99 106  83  83  87 163  94  94 200 103 100 192  98  96 191  96  94 193  98  96
204 121 118 201 119 120 201 120 117 202 124 120 200 121 117 201 118 115 204 118 115 197 111 111 189 105 105 165 107 109 150 135 138 132 142 148  70  72  77 105 109 113 169 180 185  81  88  95 120  96 100 199 102 101 198 102  98 194 100  97 193  98  96 194  99  97
201 119 117 200 114 112 201 118 116 202 117 115 201 116 114 201 118 115 200 116 115 203 115 114 189 112 111 194 117 118 189 109 108 133 120 124  86  91  95 103 105 110 170 179 183  79  85  91 140  90  92 203 102  99 195 101  97 195 100  98 194  99  97 192  98  96
200 122 120 201 116 113 202 118 116 201 117 115 200 119 116 199 118 115 201 119 116 202 115 113 193 114 114 193 115 116 206 115 113 147 103 105  84  88  92  83  86  90 153 165 167 102  98 103 176  99 101 198 101  98 194  99  97 196 101  99 195 100  98 195 101  99
199 121 117 200 117 114 200 115 113 200 115 114 200 118 115 200 120 117 200 120 115 200 116 113 201 120 116 200 119 115 206 120 116 150 105 104  75  77  82  99 104 109 138 149 154  93  78  80 193 103 101 197 101  98 194  99  97 195 100  98 196 101  99 196 102 100
202 122 118 199 115 113 201 114 113 196 115 114 187 114 112 200 120 117 198 115 111 200 114 112 201 116 113 198 113 110 204 117 113 143  98  99  72  73  78  92  98 103 111 124 129 119  81  85 202 106 104 198 102 100 194  99  97 193  98  96 194  99  97 195 101  99
195 122 121 202 120 116 201 116 114 200 118 115 198 115 114 201 115 114 200 116 113 200 115 112 201 114 112 198 107 106 203 109 107 137  94  94  72  76  80  76  79  84 102 113 118 133  85  86 204 106 102 196 101  99 195 100  98 194  98  96 195  99  98 194  99  97
167 115 115 206 123 119 200 117 115 201 116 114 200 117 114 201 119 116 201 116 113 199 113 111 205 114 111 199 108 106 205 111 110 132  90  90  61  66  70  78  78  84  82  90  95 147  89  89 204 105 101 196 100  98 195 100  98 194  96  95 195  95  94 195  96  95
137 105 106 208 126 124 200 118 115 199 117 114 201 115 113 199 112 110 201 113 111 196 111 108 166 106 105 193 109 106 207 113 110 130  90  93  67  70  76  93  95 100  76  73  78 170  97  97 201 102  98 195  99  97 197  99  98 194  97  96 195  95  95 194  93  94
120  95  94 201 123 120 200 119 115 199 119 116 199 115 112 200 112 110 205 112 111 167 108 107 110  90  94 198 108 107 205 112 109 120  88  89  68  73  78 107 114 119 107  85  88 199 109 106 196 100  98 196 102 100 127  88  91 158  89  92 199  96  95 193  93  93
132 103 105 188 118 115 201 117 115 200 120 117 200 116 114 198 110 107 199 108 106 189 110 107 188 106 106 200 109 107 198 107 106 108  80  82  63  67  71  71  73  80 146  98  98 204 112 109 198 102 100 190 100  97 144  89  92 176  93  93 196  98  95 194  96  95
154 114 117 176 109 108 203 117 114 201 119 117 201 116 114 199 112 107 198 108 103 197 111 105 199 111 106 199 112 108 196 107 105  97  77  79  59  64  69  80  71  73 188 107 106 197 104 101 196 102 100 195 102  99 199  98  96 194  97  94 193  98  96 194  95  94
